<svg xmlns="http://www.w3.org/2000/svg" width="160" height="160" viewBox="0 0 160 160">
  <defs>
    <radialGradient id="nexusEmeraldGlow" cx="50%" cy="50%" r="50%">
      <stop offset="0%" stop-color="#A7F3D0" stop-opacity="0.8" />
      <stop offset="40%" stop-color="#34D399" stop-opacity="0.45" />
      <stop offset="75%" stop-color="#06B6D4" stop-opacity="0.2" />
      <stop offset="100%" stop-color="#0891B2" stop-opacity="0" />
    </radialGradient>
    <linearGradient id="nexusCoreGrad" x1="0%" y1="0%" x2="100%" y2="100%">
      <stop offset="0%" stop-color="#ECFDF5" />
      <stop offset="30%" stop-color="#6EE7B7" />
      <stop offset="70%" stop-color="#06B6D4" />
      <stop offset="100%" stop-color="#0891B2" />
    </linearGradient>
  </defs>

  <!-- Ambient Ground Shadow -->
  <ellipse cx="80" cy="142" rx="54" ry="12" fill="#000000" fill-opacity="0.18" />

  <!-- Radiant Satisfied Energy Waves -->
  <circle cx="80" cy="80" r="68" fill="url(#nexusEmeraldGlow)" />
  <polygon points="80,24 136,80 80,136 24,80" stroke="#34D399" stroke-width="3" stroke-dasharray="8 4" fill="none" opacity="0.9" />
  <polygon points="80,34 126,80 80,126 34,80" stroke="#67E8F9" stroke-width="2" fill="none" opacity="0.75" />

  <!-- Elevated Diamond Foundation Dais (Monument Valley 45° Plinth) -->
  <polygon points="80,18 142,80 80,142 18,80" fill="#334155" stroke="#1E293B" stroke-width="3.5" />
  <polygon points="80,24 136,80 80,136 24,80" fill="#1E293B" stroke="#475569" stroke-width="2" />

  <!-- Flaring Circuit Conduits (Satisfied Current) -->
  <path d="M 80 18 L 80 50 M 142 80 L 110 80 M 80 142 L 80 110 M 18 80 L 50 80" stroke="#34D399" stroke-width="5" stroke-linecap="round" />
  <path d="M 80 18 L 80 50 M 142 80 L 110 80 M 80 142 L 80 110 M 18 80 L 50 80" stroke="#FFFFFF" stroke-width="2" stroke-linecap="round" />
  <circle cx="80" cy="22" r="3.5" fill="#FFFFFF" />
  <circle cx="138" cy="80" r="3.5" fill="#FFFFFF" />
  <circle cx="80" cy="138" r="3.5" fill="#FFFFFF" />
  <circle cx="22" cy="80" r="3.5" fill="#FFFFFF" />

  <!-- Luminous Resonator Prism -->
  <polygon points="80,50 110,80 80,110 50,80" fill="url(#nexusCoreGrad)" stroke="#FFFFFF" stroke-width="3" />
  <polygon points="80,62 98,80 80,98 62,80" fill="#FFFFFF" />
  <circle cx="80" cy="80" r="4.5" fill="#047857" />
</svg>