<svg xmlns="http://www.w3.org/2000/svg" width="160" height="160" viewBox="0 0 160 160">
  <defs>
    <linearGradient id="sproutBodyGrad" x1="0%" y1="0%" x2="0%" y2="100%">
      <stop offset="0%" stop-color="#86EFAC" />
      <stop offset="40%" stop-color="#4ADE80" />
      <stop offset="100%" stop-color="#22C55E" />
    </linearGradient>
    <linearGradient id="sproutBellyGrad" x1="0%" y1="0%" x2="0%" y2="100%">
      <stop offset="0%" stop-color="#F0FDF4" />
      <stop offset="100%" stop-color="#BBF7D0" />
    </linearGradient>
  </defs>

  <!-- Ambient Ground Shadow -->
  <ellipse cx="80" cy="142" rx="46" ry="10" fill="#000000" fill-opacity="0.14" />

  <!-- Agitated, Restless Pale Aura -->
  <ellipse cx="78.4" cy="96.0" rx="46" ry="48" fill="#BBF7D0" fill-opacity="0.25" />
  <ellipse cx="78.4" cy="96.0" rx="42" ry="44" stroke="#86EFAC" stroke-width="1.5" stroke-dasharray="4 3" fill="none" opacity="0.6" />

  <!-- Main Sprout Body Group -->
  <g transform="translate(-1.6, -0.8)">
    <!-- Tiny Stubby Woodland Feet -->
    <ellipse cx="64" cy="128.0" rx="8" ry="5" fill="#15803D" />
    <ellipse cx="96" cy="128.0" rx="8" ry="5" fill="#15803D" />

    <!-- Leaf Ears -->
      <path d="M 62.4 60.0 C 42.4 50.0 36.4 68.0 56.4 70.0 Z" fill="#4ADE80" stroke="#15803D" stroke-width="2" />
      <path d="M 94.4 60.0 C 114.4 50.0 120.4 68.0 100.4 70.0 Z" fill="#4ADE80" stroke="#15803D" stroke-width="2" />

    <!-- Plump Pear-Shaped Moss Body -->
    <path d="M 48.0 122.0 C 36.0 116.0 42.0 78.0 56.0 64.0 C 66.0 54.0 94.0 54.0 104.0 64.0 C 118.0 78.0 124.0 116.0 112.0 122.0 C 100.0 130.0 60.0 130.0 48.0 122.0 Z" fill="url(#sproutBodyGrad)" stroke="#15803D" stroke-width="2.6" />

    <!-- Soft Pastel Cream Underbelly Patch -->
    <ellipse cx="80.0" cy="108.0" rx="22" ry="18" fill="url(#sproutBellyGrad)" />
    <!-- Three Subtle Belly Clover Flecks -->
    <circle cx="74.0" cy="106.0" r="1.4" fill="#16A34A" opacity="0.5" />
    <circle cx="86.0" cy="106.0" r="1.4" fill="#16A34A" opacity="0.5" />
    <circle cx="80.0" cy="112.0" r="1.4" fill="#16A34A" opacity="0.5" />

    <!-- Rosy Woodland Cheeks -->
    <circle cx="58.0" cy="98.0" r="6.5" fill="#FCA5A5" fill-opacity="0.65" />
    <circle cx="102.0" cy="98.0" r="6.5" fill="#FCA5A5" fill-opacity="0.65" />

      <!-- Anxious Wide Pupils Wobbling -->
      <ellipse cx="64.4" cy="89.2" rx="5" ry="6.5" fill="#14532D" />
      <ellipse cx="92.4" cy="89.2" rx="5" ry="6.5" fill="#14532D" />
      <circle cx="64.0" cy="88.0" r="1.8" fill="#FFFFFF" />
      <circle cx="92.0" cy="88.0" r="1.8" fill="#FFFFFF" />
      <!-- Worried Eyebrows -->
      <path d="M 59.4 82.0 L 69.4 84.0" stroke="#14532D" stroke-width="2" stroke-linecap="round" />
      <path d="M 97.4 82.0 L 87.4 84.0" stroke="#14532D" stroke-width="2" stroke-linecap="round" />
      <!-- Anxious Sweat Drop -->
      <path d="M 106.4 80.0 Q 109.4 76.0 109.4 82.0 Q 109.4 86.0 106.4 86.0 Q 103.4 86.0 103.4 82.0 Z" fill="#38BDF8" />
<path d="M 72.4 110.0 Q 78.4 107.0 84.4 110.0" stroke="#14532D" stroke-width="2.2" stroke-linecap="round" fill="none" />

    <!-- Tiny Leaf Resting Hands -->
    <ellipse cx="54.0" cy="112.0" rx="5" ry="3.5" fill="#4ADE80" stroke="#15803D" stroke-width="1.5" />
    <ellipse cx="106.0" cy="112.0" rx="5" ry="3.5" fill="#4ADE80" stroke="#15803D" stroke-width="1.5" />
  </g>
</svg>